<?xml version="1.0" standalone="no"?>
<!DOCTYPE svg PUBLIC "-//W3C//DTD SVG 20010904//EN"
 "http://www.w3.org/TR/2001/REC-SVG-20010904/DTD/svg10.dtd">
<svg version="1.0" xmlns="http://www.w3.org/2000/svg"
 width="256.000000pt" height="256.000000pt" viewBox="0 0 256.000000 256.000000"
 preserveAspectRatio="xMidYMid meet">
<metadata>
Created by potrace 1.11, written by Peter Selinger 2001-2013
</metadata>
<g transform="translate(0.000000,256.000000) scale(0.100000,-0.100000)"
fill="#000000" stroke="none">
<path d="M1157 2384 c-186 -44 -350 -197 -402 -379 -23 -77 -24 -88 -25 -260
l-1 -150 -44 -2 c-66 -2 -112 -21 -154 -63 -38 -38 -61 -94 -61 -147 0 -16 -6
-35 -13 -42 -7 -9 -8 -11 0 -7 15 8 16 -93 0 -113 -9 -11 -9 -13 0 -8 16 10
17 -251 0 -272 -8 -10 -8 -13 -1 -8 17 10 18 -131 1 -151 -8 -11 -8 -14 0 -9
16 10 16 -212 0 -232 -9 -11 -9 -13 0 -8 8 5 11 -21 12 -96 2 -129 3 -137 13
-137 4 0 7 -4 6 -9 -2 -5 8 -21 22 -37 14 -16 24 -37 22 -48 -2 -10 2 -23 8
-30 10 -8 11 -5 5 14 -4 17 -3 21 3 12 5 -8 12 -13 16 -13 16 2 18 0 6 -14 -7
-9 -10 -18 -6 -22 3 -3 6 -1 6 5 0 7 7 12 15 12 8 0 12 -6 9 -14 -3 -8 0 -17
7 -22 8 -5 10 -3 4 6 -6 10 -4 12 8 7 11 -4 25 2 38 16 17 19 19 19 13 3 -5
-13 -4 -17 4 -12 8 5 10 2 6 -9 -4 -10 -2 -15 7 -13 8 2 13 -3 11 -10 -1 -8 2
-11 8 -7 6 3 7 11 4 17 -5 8 -1 9 10 5 14 -6 16 -3 11 15 -6 18 -5 19 8 7 8
-8 14 -18 12 -24 -1 -5 0 -7 2 -2 3 4 9 7 14 7 6 0 8 -4 4 -9 -3 -5 0 -13 6
-17 8 -5 9 -3 4 6 -6 10 -4 12 9 7 10 -4 15 -3 11 3 -10 16 39 7 51 -10 10
-11 11 -8 8 18 -2 18 1 32 7 32 6 0 7 -5 4 -10 -9 -14 8 -12 25 2 8 7 6 3 -4
-10 -11 -12 -16 -25 -13 -29 4 -3 7 -1 7 5 0 7 5 12 10 12 6 0 9 -3 8 -7 -2
-5 1 -9 6 -11 6 -1 11 4 12 13 1 8 -2 13 -7 10 -5 -4 -6 2 -2 11 4 11 8 13 11
6 2 -7 8 -12 13 -12 6 0 7 4 4 10 -3 5 -1 10 4 10 6 0 11 -5 11 -11 0 -8 4 -8
13 -2 15 12 47 13 47 1 0 -4 5 -8 11 -8 5 0 7 6 3 13 -5 8 -2 8 9 -2 14 -11
17 -11 17 0 0 8 6 5 14 -6 8 -11 13 -22 11 -26 -2 -3 1 -6 8 -6 7 0 13 8 13
18 0 10 -4 16 -7 13 -4 -2 -10 -1 -13 4 -9 15 28 9 44 -7 13 -13 13 -14 -3 -8
-11 4 -16 3 -12 -3 9 -15 23 -12 45 10 15 15 20 16 20 5 0 -19 36 -39 45 -24
5 6 16 4 33 -7 21 -13 24 -14 15 -2 -7 8 -10 18 -6 22 4 4 0 4 -9 1 -11 -4
-20 1 -27 14 -10 17 -9 20 4 15 8 -3 12 -11 8 -17 -4 -6 0 -8 11 -4 10 4 19 1
22 -7 3 -7 15 -13 27 -12 12 1 27 -5 33 -13 10 -12 11 -9 8 17 -2 18 1 32 7
32 6 0 7 -4 4 -10 -9 -14 8 -12 25 2 8 7 6 3 -4 -10 -11 -12 -16 -25 -13 -29
4 -3 7 -1 7 5 0 7 5 12 10 12 6 0 9 -3 8 -8 -2 -4 1 -9 6 -12 5 -3 10 3 12 13
1 9 -2 15 -7 12 -5 -4 -6 2 -2 11 4 11 8 13 11 6 2 -7 8 -12 13 -12 6 0 7 5 4
10 -3 6 -1 10 4 10 6 0 11 -4 11 -8 0 -4 9 -8 20 -9 11 -1 20 3 20 9 0 6 3 8
7 5 3 -4 13 -1 22 6 14 11 14 10 2 -5 -12 -16 -11 -18 8 -18 11 0 21 5 21 10
0 6 5 10 11 10 5 0 8 -4 4 -9 -3 -5 -1 -12 5 -16 6 -4 8 -10 6 -14 -3 -4 1 -8
9 -8 11 0 12 5 4 20 -6 10 -8 21 -5 25 3 3 6 -1 6 -9 0 -10 3 -10 8 -3 5 8 11
7 22 -4 13 -14 12 -15 -3 -9 -11 4 -16 3 -12 -3 10 -16 24 -12 50 16 20 21 23
22 18 5 -6 -22 31 -49 42 -30 5 6 16 4 33 -7 21 -13 24 -14 15 -2 -7 8 -10 18
-6 22 4 4 0 4 -8 1 -9 -3 -21 0 -27 8 -9 11 -8 14 3 14 8 0 12 -4 9 -9 -3 -4
0 -8 5 -8 6 0 11 6 11 13 1 6 8 0 16 -15 17 -32 20 -34 28 -12 3 8 2 12 -4 9
-6 -3 -7 1 -4 9 9 23 12 20 24 -16 l10 -33 -4 35 c-3 19 -2 29 1 23 2 -7 9
-13 14 -13 6 0 7 4 4 10 -3 5 -1 10 4 10 14 0 14 -13 0 -27 -9 -9 -7 -12 9
-10 11 0 18 5 16 9 -3 4 0 8 6 8 6 0 9 3 6 8 -2 4 9 8 25 8 31 2 36 -17 6 -22
-11 -1 -15 2 -10 9 3 7 2 8 -2 4 -14 -12 -15 -38 -2 -30 7 4 23 8 37 9 41 2
43 3 37 26 -6 20 -3 19 17 -6 16 -20 25 -26 30 -17 4 6 3 10 -2 9 -6 -2 -10 0
-11 5 -1 4 2 7 7 8 4 0 15 7 24 16 9 8 21 12 27 9 11 -7 6 33 -5 43 -4 3 -4
-2 -1 -12 4 -10 3 -16 -2 -13 -5 3 -12 -1 -15 -10 -3 -8 -11 -12 -17 -8 -7 4
-9 3 -6 -3 3 -5 0 -10 -8 -10 -8 0 -15 4 -15 9 0 8 14 11 26 6 3 -2 12 10 21
25 11 21 18 26 27 18 17 -14 29 -2 15 15 -7 8 -6 14 2 19 6 4 15 1 20 -6 6 -9
9 -10 9 -2 0 6 -4 14 -10 18 -5 3 -6 13 -3 21 5 13 7 13 14 2 6 -8 7 -1 3 18
-3 17 -1 41 5 53 7 11 8 21 3 21 -10 0 -9 111 1 127 4 7 4 14 -1 17 -9 5 -9
47 1 63 4 7 4 14 -1 17 -9 5 -9 47 1 63 4 7 4 14 -1 17 -9 5 -9 47 1 63 4 7 3
14 -2 18 -10 6 -7 37 5 57 4 7 3 8 -4 4 -15 -9 -15 -1 -1 26 8 16 8 19 -1 13
-9 -6 -9 -3 -1 13 8 15 8 21 -1 24 -8 3 -8 10 2 27 7 15 8 21 1 17 -14 -9 -14
0 0 26 8 16 8 19 -1 13 -9 -6 -9 -2 -1 14 7 11 8 21 3 21 -10 0 -9 111 1 127
4 7 4 14 -1 17 -9 5 -9 47 1 63 4 7 4 14 -1 17 -9 5 -9 47 1 63 4 5 4 13 0 16
-3 3 -7 29 -9 56 -8 113 -94 201 -199 203 -49 1 -80 23 -54 39 8 5 9 9 3 9
-14 0 -14 33 0 42 8 5 7 8 -1 8 -7 0 -13 9 -13 20 0 11 6 20 13 20 8 0 9 2 1
8 -7 4 -12 37 -12 82 0 41 -2 91 -5 110 -33 202 -185 380 -376 441 -81 26
-214 32 -294 13z m123 -188 c0 -2 -7 -7 -16 -10 -8 -3 -12 -2 -9 4 6 10 25 14
25 6z m46 -11 c-3 -8 1 -21 9 -29 8 -7 12 -16 10 -18 -3 -3 1 -5 9 -5 13 0 13
3 0 21 -8 11 -14 25 -14 31 0 5 5 2 11 -7 5 -10 16 -15 24 -12 8 4 15 1 15 -5
0 -6 5 -11 11 -11 5 0 7 5 3 12 -4 7 -3 8 5 4 6 -4 8 -12 5 -18 -4 -6 1 -8 15
-3 13 4 21 2 21 -5 0 -6 4 -8 10 -5 6 4 7 -1 3 -11 -4 -11 -8 -13 -11 -6 -2 7
-9 9 -14 6 -7 -5 -8 -2 -3 7 8 12 6 12 -8 0 -9 -7 -17 -16 -17 -19 0 -3 3 -2
6 1 4 3 15 2 25 -3 13 -7 22 -6 33 6 16 15 22 8 17 -20 -1 -5 4 -6 12 -3 8 3
21 -3 30 -13 13 -16 14 -19 1 -24 -8 -3 -13 -2 -10 2 2 4 1 14 -3 21 -6 9 -11
10 -15 2 -4 -6 -2 -11 4 -11 6 0 9 -4 6 -8 -2 -4 -1 -14 5 -22 6 -10 9 -11 9
-2 0 26 30 10 54 -30 24 -40 24 -43 8 -63 -16 -19 -16 -19 1 -6 9 7 17 12 18
10 0 -2 3 -13 5 -24 11 -45 10 -85 0 -85 -8 0 -8 -2 0 -8 6 -4 11 -29 11 -57
0 -27 -5 -53 -11 -57 -8 -6 -8 -8 0 -8 14 0 14 -108 0 -113 -6 -2 -162 -3
-346 -3 -362 1 -348 -1 -328 54 4 13 4 22 -2 22 -6 0 -10 5 -10 11 0 5 6 7 13
3 9 -5 9 -4 0 6 -8 8 -9 20 -3 36 7 17 6 24 -3 25 -8 0 -8 2 2 6 9 4 10 7 2
13 -8 5 -9 14 -2 33 8 20 7 27 -2 27 -8 0 -7 4 3 10 10 6 11 10 3 10 -9 0 -10
7 -3 24 5 13 6 26 3 30 -3 3 -2 13 2 23 5 10 7 21 7 26 -1 4 3 7 9 7 6 0 8 7
5 16 -5 12 -1 14 17 9 22 -7 22 -7 2 10 -20 16 -20 16 3 12 19 -4 21 -3 12 8
-16 19 -4 35 23 30 19 -4 20 -2 7 8 -14 10 -10 17 24 47 22 19 37 30 33 24 -4
-7 2 -14 13 -17 14 -4 23 1 31 16 10 21 10 21 -5 3 -9 -11 -16 -14 -16 -8 0 7
-1 15 -2 19 -4 8 33 14 44 7 5 -3 3 -13 -4 -22 -12 -15 -11 -16 5 -3 9 7 17
19 16 25 -3 22 1 36 10 36 6 0 8 -9 6 -20 -2 -12 0 -18 6 -14 5 3 17 0 26 -8
12 -9 15 -9 9 0 -4 7 -2 12 4 12 6 0 8 5 4 11 -5 8 -9 8 -14 -1 -4 -7 -10 -8
-13 -3 -3 5 4 15 16 22 12 8 19 10 15 6 -7 -8 2 -19 37 -45 18 -14 19 -13 8 1
-7 9 -9 20 -5 24 4 5 1 5 -7 0 -10 -5 -12 -4 -7 4 4 6 12 9 17 6 5 -4 9 0 9 7
0 10 3 9 10 -2 8 -12 10 -12 16 3 3 9 8 17 11 17 3 0 3 -7 -1 -15z m-66 -990
c0 -5 -5 -3 -10 5 -5 8 -10 20 -10 25 0 6 5 3 10 -5 5 -8 10 -19 10 -25z m30
31 c0 -3 -4 -8 -10 -11 -5 -3 -10 -1 -10 4 0 6 5 11 10 11 6 0 10 -2 10 -4z
m29 -11 c5 2 7 -7 5 -21 -1 -14 1 -23 4 -19 7 6 8 10 11 38 1 9 4 8 10 -2 5
-8 7 -20 4 -28 -5 -12 8 -18 30 -14 4 0 7 -4 7 -10 0 -6 10 -19 23 -30 36 -30
38 -22 4 13 -18 18 -35 31 -39 30 -12 -3 -10 16 2 23 6 3 10 1 10 -5 0 -6 5
-8 12 -4 6 4 8 3 4 -4 -3 -6 6 -23 21 -38 16 -16 29 -32 29 -36 1 -4 2 -9 4
-10 1 -2 3 -11 5 -21 2 -11 -1 -15 -8 -11 -8 5 -7 2 1 -7 26 -28 4 -103 -46
-153 -35 -36 -37 -41 -37 -101 0 -35 3 -61 6 -59 4 2 7 -6 7 -19 0 -12 2 -32
5 -44 4 -14 1 -23 -6 -23 -7 0 -6 -4 3 -10 8 -5 11 -10 7 -10 -5 0 -5 -5 -1
-12 14 -22 15 -70 1 -63 -6 4 -4 0 6 -8 17 -14 17 -15 0 -19 -15 -3 -199 -3
-241 1 -14 1 -12 32 3 43 6 5 5 8 -3 8 -7 0 -10 5 -6 12 4 6 8 27 10 47 1 20
3 36 4 36 2 0 6 23 14 70 2 17 5 32 6 35 1 3 1 22 0 44 -1 29 -9 45 -31 63
-16 14 -35 35 -41 46 -17 33 -27 86 -16 93 5 3 5 11 -2 19 -8 9 -8 15 0 20 6
3 8 11 5 16 -4 5 -1 9 5 9 6 0 9 4 6 8 -3 5 4 21 16 38 11 16 18 22 15 13 -3
-9 -1 -22 5 -30 8 -11 9 -10 4 4 -3 11 0 17 9 17 8 0 15 5 15 11 0 5 -4 8 -9
5 -11 -7 -9 13 3 32 6 10 11 10 22 1 11 -9 15 -8 20 6 6 14 9 13 23 -8 l16
-24 25 27 c14 15 27 23 28 18 2 -4 7 -6 11 -3z m-689 -1050 c0 -8 -2 -15 -4
-15 -2 0 -6 7 -10 15 -3 8 -1 15 4 15 6 0 10 -7 10 -15z m998 -10 c-3 -3 -9 2
-12 12 -6 14 -5 15 5 6 7 -7 10 -15 7 -18z m305 10 c4 -8 3 -16 -1 -19 -4 -3
-9 4 -9 15 -2 23 3 25 10 4z m-1223 -4 c0 -6 -4 -12 -8 -15 -5 -3 -9 1 -9 9 0
8 4 15 9 15 4 0 8 -4 8 -9z m60 -3 c0 -4 5 -8 11 -8 5 0 8 3 6 8 -3 4 8 7 23
7 21 1 26 -3 20 -10 -12 -14 -67 -12 -81 2 -6 6 -4 10 6 10 8 0 15 -4 15 -9z
m380 2 c0 -5 -2 -10 -4 -10 -3 0 -8 5 -11 10 -3 6 -1 10 4 10 6 0 11 -4 11
-10z m59 -24 c0 -7 -2 -6 -6 2 -2 6 -8 10 -12 8 -4 -3 -8 1 -8 9 0 11 4 12 14
4 7 -6 13 -17 12 -23z m99 17 c-8 -10 -14 -10 -24 -2 -18 15 -18 15 11 15 19
0 22 -3 13 -13z m378 -20 c-3 -4 -6 -1 -6 6 0 7 -4 9 -10 6 -6 -4 -7 1 -3 11
6 15 7 15 15 -1 6 -9 7 -19 4 -22z"/>
<path d="M1290 2158 c0 -4 4 -8 9 -8 6 0 12 4 15 8 3 5 -1 9 -9 9 -8 0 -15 -4
-15 -9z"/>
<path d="M1376 2146 c3 -9 13 -16 22 -16 8 0 13 1 11 3 -2 1 -12 9 -22 16 -15
12 -17 12 -11 -3z"/>
<path d="M1051 2086 c-18 -19 -20 -24 -7 -29 10 -4 13 -1 9 9 -3 9 0 14 7 12
7 -2 14 5 15 15 4 22 3 22 -24 -7z"/>
<path d="M1093 2085 c0 -8 4 -12 9 -9 5 3 6 10 3 15 -9 13 -12 11 -12 -6z"/>
<path d="M1460 2086 c0 -2 7 -7 16 -10 8 -3 12 -2 9 4 -6 10 -25 14 -25 6z"/>
<path d="M1007 2029 c7 -7 15 -10 18 -7 3 3 -2 9 -12 12 -14 6 -15 5 -6 -5z"/>
<path d="M1558 2013 c6 -2 12 -10 12 -18 0 -7 7 -19 17 -26 15 -13 15 -11 -1
19 -9 17 -22 32 -29 31 -9 0 -9 -2 1 -6z"/>
<path d="M950 1920 c0 -5 5 -10 11 -10 5 0 7 5 4 10 -3 6 -8 10 -11 10 -2 0
-4 -4 -4 -10z"/>
<path d="M1296 1194 c-4 -9 -4 -19 -1 -22 2 -3 7 3 11 12 4 9 4 19 1 22 -2 3
-7 -3 -11 -12z"/>
<path d="M1176 1191 c-4 -6 0 -11 9 -11 10 0 13 -5 9 -12 -5 -7 -3 -8 7 -2 8
5 17 9 22 9 4 0 7 3 7 8 0 4 0 10 0 13 0 4 -6 2 -13 -5 -10 -7 -17 -7 -24 0
-8 8 -13 8 -17 0z"/>
<path d="M1131 1114 c0 -11 3 -14 6 -6 3 7 2 16 -1 19 -3 4 -6 -2 -5 -13z"/>
<path d="M1437 1089 c7 -7 15 -10 18 -7 3 3 -2 9 -12 12 -14 6 -15 5 -6 -5z"/>
<path d="M470 266 c0 -3 9 -10 20 -16 11 -6 20 -8 20 -6 0 3 -9 10 -20 16 -11
6 -20 8 -20 6z"/>
<path d="M495 220 c-3 -5 -2 -10 4 -10 5 0 13 5 16 10 3 6 2 10 -4 10 -5 0
-13 -4 -16 -10z"/>
<path d="M966 153 c-4 -4 -12 -8 -17 -8 -5 0 -9 -3 -9 -7 0 -5 0 -13 0 -20 0
-6 8 -1 19 10 21 25 32 28 27 10 -1 -7 -1 -10 1 -5 3 4 9 7 14 7 6 0 8 -4 4
-9 -3 -5 0 -13 6 -17 8 -5 9 -3 5 5 -5 8 -3 12 5 10 24 -3 39 1 39 9 0 4 -12
8 -27 8 -16 1 -35 4 -44 8 -8 4 -19 3 -23 -1z"/>
<path d="M639 133 c-7 -10 -9 -15 -5 -11 5 4 16 2 25 -5 14 -10 14 -10 4 4 -7
9 -10 19 -6 22 3 4 4 7 1 7 -3 0 -12 -8 -19 -17z"/>
<path d="M1416 142 c-3 -2 -2 -10 1 -18 4 -11 7 -11 19 1 8 7 14 15 14 18 0 5
-29 5 -34 -1z"/>
<path d="M1465 139 c-4 -6 -4 -13 -1 -16 3 -4 6 -1 6 5 0 7 5 12 11 12 5 0 8
-4 4 -9 -3 -5 0 -13 6 -17 8 -5 9 -3 5 5 -5 8 -3 12 5 10 26 -3 39 1 39 12 0
8 -4 8 -13 1 -8 -7 -18 -7 -27 -2 -20 13 -27 12 -35 -1z"/>
<path d="M1137 123 c-3 -5 5 -8 18 -8 13 0 21 3 18 8 -2 4 -10 7 -18 7 -8 0
-16 -3 -18 -7z"/>
<path d="M1617 123 c-3 -5 5 -8 18 -8 13 0 21 3 18 8 -2 4 -10 7 -18 7 -8 0
-16 -3 -18 -7z"/>
</g>
</svg>
